<svg width="32" height="32" viewBox="0 0 32 32" fill="none" xmlns="http://www.w3.org/2000/svg">
    <path d="M16 2.66666C8.64 2.66666 2.66669 8.64 2.66669 16C2.66669 23.36 8.64 29.3333 16 29.3333C23.36 29.3333 29.3334 23.36 29.3334 16C29.3334 8.64 23.36 2.66666 16 2.66666Z" fill="url(#paint0_linear_1_2)"/>
    <path d="M16 2.66666C8.64 2.66666 2.66669 8.64 2.66669 16C2.66669 23.36 8.64 29.3333 16 29.3333C23.36 29.3333 29.3334 23.36 29.3334 16C29.3334 8.64 23.36 2.66666 16 2.66666Z" fill="url(#paint1_radial_1_2)" fill-opacity="0.2"/>
    <path d="M16 12C17.1046 12 18 11.1046 18 10C18 8.89543 17.1046 8 16 8C14.8954 8 14 8.89543 14 10C14 11.1046 14.8954 12 16 12Z" fill="white"/>
    <path d="M21.3333 16C21.3333 18.9453 18.9453 21.3333 16 21.3333C13.0547 21.3333 10.6667 18.9453 10.6667 16H21.3333Z" fill="white"/>
    <defs>
        <linearGradient id="paint0_linear_1_2" x1="16" y1="2.66666" x2="16" y2="29.3333" gradientUnits="userSpaceOnUse">
            <stop stop-color="#A855F7"/>
            <stop offset="1" stop-color="#6366F1"/>
        </linearGradient>
        <radialGradient id="paint1_radial_1_2" cx="0" cy="0" r="1" gradientUnits="userSpaceOnUse" gradientTransform="translate(16 2.66666) rotate(90) scale(26.6667)">
            <stop stop-color="white"/>
            <stop offset="1" stop-color="white" stop-opacity="0"/>
        </radialGradient>
    </defs>
</svg>
